# xmcd CD database file
#
# Track frame offsets:
#	150
#	13294
#	32102
#	50388
#	67837
#	82720
#	101737
#	120275
#	135830
#	154140
#	176198
#	194712
#	217609
#	236307
#	253524
#	271234
#	286207
#	295238
#	312825
#	326895
#	343551
#
# Disc length: 4742 seconds
#
# Revision: 4
# Processed by: cddbd v1.5.2PL0 Copyright (c) Steve Scherf et al.
# Submitted via: CDex 1.51
#
DISCID=23128415
DTITLE=Various Artist - Rock Christmas 08
DYEAR=1999
DGENRE=Weihnachten
TTITLE0=John Bon Jovi - Please Come Home For Christmas
TTITLE1=Vanessa Williams - Baby, It's Cold Outside
TTITLE2=Michael Bolton (Duet with Wynonna) - This Is The Time
TTITLE3=Band Aid 2 - Do They Know It's Christmas?
TTITLE4=Kisha - As Long As There's Christmas
TTITLE5=NSYNC - Merry Christmas, Happy Holidays
TTITLE6=Loona - Navidad
TTITLE7=Brian McKnight (featuring Michael Sembello) - Bethlehem Tonight
TTITLE8=All-4-One - Frosty The Snowman
TTITLE9=Babyface - You Were There
TTITLE10=98 Degrees - This Gift
TTITLE11=Luther Vandross - Have Yourself A Merry Little Christmas
TTITLE12=Dru Hill - This Christmas
TTITLE13=Rapsody (featuring Angelique Kidjo) - A Child Is Born
TTITLE14=Stevie Wonder - Ave Maria
TTITLE15=Syndey Youngblood - Season (X-Mas)
TTITLE16=Simon and Garfunkel - 7 o'Clock News-Silent Night
TTITLE17=Hanson - Christmas Time
TTITLE18=Richie Sambora - O Come All Ye Faithfull
TTITLE19=Joan Osborne - Go Where I Send Thee
TTITLE20=Bryan Adams - Run Rudolph Run
EXTD=YEAR: 1999
EXTT0=
EXTT1=
EXTT2=
EXTT3=
EXTT4=
EXTT5=
EXTT6=
EXTT7=
EXTT8=
EXTT9=
EXTT10=
EXTT11=
EXTT12=
EXTT13=
EXTT14=
EXTT15=
EXTT16=
EXTT17=
EXTT18=
EXTT19=
EXTT20=
PLAYORDER=
